<svg width="400" height="400" viewBox="0 0 400 400" fill="none" xmlns="http://www.w3.org/2000/svg">
<g clip-path="url(#clip0_7_22)">
<path d="M129.098 228.852V387.293C61.2953 362.124 10.846 301.903 0.185944 228.852H129.098Z" fill="#C9202F"/>
<path d="M186.055 228.852H399.814C385.683 325.66 301.642 400 200 400C195.29 400 190.703 399.816 186.055 399.509V228.852Z" fill="#C9202F"/>
<path d="M186.055 172.437V0.491095C190.641 0.184158 195.29 3.69333e-06 200 3.69333e-06C302.076 3.69333e-06 386.427 75.0153 400 172.437H186.055Z" fill="#C9202F"/>
<path d="M129.098 172.437H0C10.2262 98.8336 60.9235 38.0601 129.098 12.7071V172.437Z" fill="#C9202F"/>
</g>
<defs>
<clipPath id="clip0_7_22">
<rect width="400" height="400" fill="white" transform="matrix(1 0 0 -1 0 400)"/>
</clipPath>
</defs>
</svg>
