<svg width="400" height="400" viewBox="0 0 400 400" fill="none" xmlns="http://www.w3.org/2000/svg">
<g clip-path="url(#clip0_7_60)">
<path d="M204.292 0.102173V30.5569H306.183C276.546 11.8549 241.696 0.817553 204.292 0.102173Z" fill="#B22234"/>
<path d="M345.733 63.1579H204.292V95.7588H370.669C363.516 84.0061 355.135 73.071 345.733 63.1579Z" fill="#B22234"/>
<path d="M386.714 128.36H204.292V160.961H396.117C393.97 149.719 390.802 138.784 386.714 128.36Z" fill="#B22234"/>
<path d="M399.898 193.562H204.292V226.162H398.263C399.387 217.578 400 208.891 400 200C400 197.854 399.898 195.708 399.898 193.562Z" fill="#B22234"/>
<path d="M22.0746 291.364H377.925C383.24 280.94 387.736 270.107 391.211 258.763H8.78897C12.2637 270.107 16.7604 281.042 22.0746 291.364Z" fill="#B22234"/>
<path d="M75.626 356.668H324.272C336.331 347.062 347.266 336.127 356.873 324.067H43.1273C52.6316 336.127 63.5667 347.062 75.626 356.668Z" fill="#B22234"/>
<path d="M200 400C222.688 400 244.456 396.219 264.793 389.269H135.207C155.544 396.219 177.312 400 200 400Z" fill="#B22234"/>
<path d="M200 0C173.735 0 148.595 5.10986 125.6 14.3076L126.316 16.4538H135.82L128.155 22.0746L130.915 30.557L131.119 31.068L130.404 30.557L123.454 25.5493L116.505 30.557L115.789 31.068L115.994 30.557L118.753 22.0746L114.768 19.2131C107.614 22.5856 100.664 26.3669 94.0215 30.557C79.4073 39.7547 66.1216 50.6898 54.3689 63.1579C47.8283 70.1073 41.9009 77.4655 36.3822 85.2325H40.8789L43.8426 76.2391L46.8063 85.2325H56.3107L48.6459 90.8533L50.281 95.861L51.6096 99.9489L45.9888 95.861L43.8426 94.3281L41.6965 95.861L36.0756 99.9489L37.4042 95.861L39.0393 90.8533L34.5427 87.583C32.7031 90.2402 30.9658 92.9995 29.2284 95.861C26.7757 99.8467 24.5273 103.832 22.3812 108.022H29.6372L21.9724 113.643L24.9361 122.637L17.7823 117.425C16.1472 121.002 14.6142 124.681 13.1834 128.462C10.1175 136.433 7.5626 144.609 5.51865 153.091H14.8186L17.7823 144.098L20.746 153.091H30.2504L22.5856 158.712L23.4032 161.165L25.5493 167.808L17.8845 162.187L10.2197 167.808L12.3659 161.165L13.1834 158.712L5.72305 153.296C5.10986 155.953 4.49668 158.508 3.98569 161.165C3.06592 166.071 2.24834 170.976 1.63516 175.881H3.06592L1.32856 176.801C0.715381 182.32 0.306592 187.941 0.102197 193.562C0 195.708 0 197.854 0 200C0 208.891 0.613183 217.578 1.73735 226.162H204.292V193.562V160.961V128.36V95.7588V63.1579V30.4548V0.102197C202.862 0 201.431 0 200 0ZM150.128 30.4548L152.989 39.2437H162.494L154.829 44.8646L157.793 53.8579L150.128 48.2371L142.463 53.8579L145.427 44.8646L137.762 39.2437H147.266L150.128 30.4548ZM120.388 62.2381L123.352 53.2448L126.316 62.2381H135.82L134.594 63.1579L128.155 67.859L131.119 76.8523L123.454 71.2315L115.789 76.8523L118.753 67.859L112.315 63.1579L111.088 62.2381H120.388ZM158.406 190.291L150.741 184.67L143.076 190.291L146.04 181.298L138.375 175.677H147.879L150.843 166.684L153.807 175.677H163.311L155.646 181.298L158.406 190.291ZM130.199 160.961L132.345 167.603L124.681 161.983L117.016 167.603L119.162 160.961L119.98 158.508L112.315 152.887H121.819L124.783 143.894L127.747 152.887H137.251L129.586 158.508L130.199 160.961ZM94.3281 175.677L97.2918 166.684L100.255 175.677H109.76L102.095 181.298L105.059 190.291L97.394 184.67L89.7292 190.291L92.6929 181.298L85.0281 175.677H94.3281ZM100.358 130.199H109.862L102.197 135.82L105.161 144.813L97.4962 139.193L89.8314 144.813L92.7951 135.82L85.1303 130.199H94.6346L95.2478 128.36L97.5984 121.206L99.9489 128.36L100.358 130.199ZM78.3853 122.432L70.7205 116.811L63.0557 122.432L66.0194 113.439L58.3546 107.818H67.859L70.8227 98.8247L73.7864 107.818H83.2908L75.626 113.439L78.3853 122.432ZM131.834 122.432L124.17 116.811L116.505 122.432L119.469 113.439L111.804 107.818H121.308L124.272 98.8247L127.236 107.818H136.74L129.075 113.439L131.834 122.432ZM93.7149 39.3459L96.5764 30.557L96.6786 30.3526L96.7808 30.557L99.6423 39.3459H109.147L101.482 44.9668L104.446 53.9601L96.7808 48.3393L88.9116 53.9601L91.8753 44.9668L84.2105 39.3459H93.7149ZM57.4349 62.2381H66.9392L69.9029 53.2448L72.8666 62.2381H82.371L81.1446 63.1579L74.604 67.7568L77.5677 76.7501L69.9029 71.1293L62.2381 76.7501L65.2018 67.7568L58.7634 63.0557L57.4349 62.2381ZM84.8237 85.1303H94.3281L97.2918 76.1369L100.255 85.1303H109.76L102.095 90.7512L103.73 95.7588L105.059 99.8467L99.4379 95.7588L97.2918 94.2259L95.1456 95.7588L89.5248 99.8467L90.8533 95.7588L92.4885 90.7512L84.8237 85.1303ZM44.047 121.206L46.3975 128.36L47.0107 130.199H56.5151L48.8503 135.82L51.814 144.813L44.1492 139.193L36.4844 144.813L39.4481 135.82L31.7833 130.199H41.2877L41.9009 128.36L44.047 121.206ZM58.7634 152.989H68.2678L71.2315 143.996L74.1952 152.989H83.6995L76.0347 158.61L76.8523 161.063L78.9985 167.706L71.3337 162.085L63.6689 167.706L65.815 161.063L66.6326 158.61L58.7634 152.989ZM51.5074 190.291L43.8426 184.67L36.1778 190.291L39.1415 181.298L31.4767 175.677H40.8789L43.8426 166.684L46.8063 175.677H56.3107L48.6459 181.298L51.5074 190.291ZM24.8339 213.183L17.1691 207.563L9.50434 213.183L12.4681 204.19L4.80327 198.569H14.3076L15.9428 193.562L17.2713 189.474L18.5999 193.562L20.2351 198.569H29.7394L22.0746 204.19L24.8339 213.183ZM78.2831 213.183L70.6183 207.563L62.9535 213.183L65.9172 204.19L58.2524 198.569H67.7568L69.3919 193.562L70.7205 189.474L72.0491 193.562L73.6842 198.569H83.1886L75.5238 204.19L78.2831 213.183ZM131.63 213.183L123.965 207.563L116.3 213.183L119.264 204.19L111.599 198.569H121.104L122.739 193.562L124.067 189.474L125.396 193.562L127.031 198.569H136.536L128.871 204.19L131.63 213.183ZM180.378 198.569H189.882L182.218 204.19L185.181 213.183L177.517 207.563L169.852 213.183L172.816 204.19L165.151 198.569H174.655L176.29 193.562L177.619 189.474L178.947 193.562L180.378 198.569ZM185.692 167.501L178.028 161.88L170.363 167.501L172.509 160.858L173.327 158.406L165.662 152.785H175.166L178.13 143.792L181.094 152.785H190.598L182.933 158.406L183.751 160.858L185.692 167.501ZM153.807 130.199H163.311L155.646 135.82L158.61 144.813L150.945 139.193L143.281 144.813L146.244 135.82L138.579 130.199H148.084L148.697 128.36L151.048 121.206L153.398 128.36L153.807 130.199ZM185.181 122.432L177.517 116.811L169.852 122.432L172.816 113.439L165.151 107.818H174.655L177.619 98.8247L180.583 107.818H190.087L182.422 113.439L185.181 122.432ZM158.406 99.7445L152.785 95.6566L150.639 94.1237L148.493 95.6566L142.872 99.7445L144.2 95.6566L145.835 90.649L138.171 85.0281H147.675L150.639 76.0347L153.602 85.0281H163.107L155.442 90.649L157.077 95.6566L158.406 99.7445ZM184.466 76.8523L176.801 71.2315L169.136 76.8523L172.1 67.859L165.662 63.1579L164.435 62.2381H173.94L176.903 53.2448L179.867 62.2381H189.371L188.145 63.1579L181.707 67.859L184.466 76.8523ZM184.466 31.068L183.751 30.557L176.801 25.5493L169.852 30.557L169.136 31.068L169.341 30.557L172.1 22.0746L164.435 16.4538H173.94L176.903 7.4604L179.867 16.4538H189.371L181.707 22.0746L184.466 30.557V31.068Z" fill="#304F7D"/>
<path d="M370.669 95.7588H204.292V128.36H386.714C382.32 116.914 377.006 105.979 370.669 95.7588Z" fill="white"/>
<path d="M396.116 160.961H204.292V193.562H399.898C399.489 182.422 398.263 171.589 396.116 160.961Z" fill="white"/>
<path d="M1.73734 226.163C3.1681 237.302 5.62083 248.237 8.78895 258.763H391.211C394.481 248.237 396.832 237.302 398.263 226.163H204.292H1.73734Z" fill="white"/>
<path d="M135.207 389.269H264.793C286.561 381.809 306.694 370.669 324.374 356.668H75.6259C93.3061 370.669 113.439 381.809 135.207 389.269Z" fill="white"/>
<path d="M306.183 30.4548H204.292V63.0557H345.733C334.083 50.5876 320.797 39.6525 306.183 30.4548Z" fill="white"/>
<path d="M43.1272 324.067H356.873C364.844 313.95 371.896 303.015 377.925 291.467H22.0746C28.002 303.015 35.0536 313.848 43.1272 324.067Z" fill="white"/>
<path d="M115.789 30.4548L115.585 30.9658L116.3 30.4548L123.25 25.4471L130.199 30.4548L130.915 30.9658L130.71 30.4548L127.951 21.9724L135.616 16.3516H126.111L125.396 14.2054C121.717 15.7384 118.038 17.2714 114.461 19.0087L118.447 21.8702L115.789 30.4548Z" fill="white"/>
<path d="M169.239 30.4548L169.034 31.068L169.75 30.4548L176.699 25.4471L183.751 30.4548L184.466 31.068L184.262 30.4548L181.502 21.9724L189.167 16.4538H179.663L176.699 7.35822L173.837 16.4538H164.333L171.998 21.9724L169.239 30.4548Z" fill="white"/>
<path d="M88.9116 53.9602L96.5764 48.3393L104.241 53.9602L101.38 44.8646L109.044 39.346H99.5401L96.6786 30.4548L96.5764 30.2504V30.4548L93.7148 39.346H84.2105L91.8753 44.8646L88.9116 53.9602Z" fill="white"/>
<path d="M142.361 53.9602L150.026 48.3393L157.69 53.9602L154.727 44.8646L162.494 39.346H152.989L150.128 30.4548L150.026 30.2504L149.923 30.4548L147.062 39.346H137.66L145.324 44.8646L142.361 53.9602Z" fill="white"/>
<path d="M65.2018 67.7568L62.2381 76.8523L69.9029 71.2315L77.5677 76.8523L74.604 67.7568L81.0424 63.1579L82.371 62.2381H72.8666L69.9029 53.1426L66.9392 62.2381H57.4348L58.7634 63.1579L65.2018 67.7568Z" fill="white"/>
<path d="M118.549 67.7568L115.687 76.8523L123.352 71.2315L131.017 76.8523L128.053 67.7568L134.492 63.1579L135.718 62.2381H126.214L123.352 53.1426L120.388 62.2381H110.884L112.11 63.1579L118.549 67.7568Z" fill="white"/>
<path d="M171.998 67.7568L169.034 76.8523L176.699 71.2315L184.466 76.8523L181.502 67.7568L187.941 63.1579L189.167 62.2381H179.663L176.699 53.1426L173.837 62.2381H164.333L165.559 63.1579L171.998 67.7568Z" fill="white"/>
<path d="M37.5064 95.7588L36.1778 99.8467L41.7987 95.7588L43.9448 94.2259L46.091 95.7588L51.7118 99.8467L50.3832 95.7588L48.7481 90.7512L56.4129 85.1303H46.9085L43.9448 76.137L40.8789 85.1303H36.1778C35.6668 85.9479 35.0536 86.6633 34.5427 87.4809L39.0393 90.7512L37.5064 95.7588Z" fill="white"/>
<path d="M100.153 85.1303L97.2917 76.137L94.328 85.1303H84.8237L92.4885 90.7512L90.9555 95.7588L89.6269 99.7445L95.1456 95.7588L97.2917 94.2259L99.3357 95.7588L104.957 99.7445L103.628 95.7588L101.993 90.7512L109.658 85.1303H100.153Z" fill="white"/>
<path d="M153.602 85.1303L150.741 76.137L147.777 85.1303H138.273L145.938 90.7512L144.303 95.7588L142.974 99.7445L148.595 95.7588L150.741 94.2259L152.785 95.7588L158.406 99.7445L157.077 95.7588L155.442 90.7512L163.107 85.1303H153.602Z" fill="white"/>
<path d="M22.0746 113.439L29.7394 107.818H22.4834C20.8482 110.884 19.3153 114.052 17.8845 117.22L25.0383 122.432L22.0746 113.439Z" fill="white"/>
<path d="M73.6842 107.92L70.7205 98.8247L67.7568 107.92H58.2524L66.0194 113.439L63.0557 122.432L70.7205 116.914L78.3853 122.432L75.4216 113.439L83.0863 107.92H73.6842Z" fill="white"/>
<path d="M127.031 107.92L124.17 98.8247L121.206 107.92H111.702L119.366 113.439L116.505 122.432L124.17 116.914L131.834 122.432L128.871 113.439L136.536 107.92H127.031Z" fill="white"/>
<path d="M180.48 107.92L177.517 98.8247L174.655 107.92H165.151L172.816 113.439L169.852 122.432L177.517 116.914L185.181 122.432L182.32 113.439L189.985 107.92H180.48Z" fill="white"/>
<path d="M12.2637 160.961L10.1175 167.603L17.7823 161.983L25.4471 167.603L23.301 160.961L22.4834 158.508L30.1482 152.887H20.6438L17.6801 143.894L14.7164 152.887H5.62085V152.989L13.0812 158.406L12.2637 160.961Z" fill="white"/>
<path d="M74.1952 152.989L71.2315 143.894L68.2677 152.989H58.7634L66.4282 158.508L65.7128 160.961L63.5667 167.501L71.2315 161.983L78.8963 167.501L76.7501 160.961L75.9325 158.508L83.5973 152.989H74.1952Z" fill="white"/>
<path d="M127.542 152.989L124.681 143.894L121.717 152.989H112.213L119.877 158.508L119.06 160.961L116.914 167.501L124.681 161.983L132.345 167.501L130.199 160.961L129.382 158.508L137.047 152.989H127.542Z" fill="white"/>
<path d="M180.991 152.989L178.028 143.894L175.166 152.989H165.662L173.327 158.508L172.509 160.961L170.363 167.501L178.028 161.983L185.692 167.501L183.546 160.961L182.831 158.508L190.496 152.989H180.991Z" fill="white"/>
<path d="M9.50432 213.183L17.1691 207.563L24.8339 213.183L21.8702 204.088L29.535 198.569H20.0306L18.4977 193.562L17.1691 189.474L15.8406 193.562L14.2054 198.569H4.70105L12.3658 204.088L9.50432 213.183Z" fill="white"/>
<path d="M73.4798 198.569L71.8446 193.562L70.5161 189.474L69.2897 193.562L67.6545 198.569H58.1502L65.815 204.088L62.8513 213.183L70.5161 207.563L78.2831 213.183L75.3193 204.088L82.9841 198.569H73.4798Z" fill="white"/>
<path d="M126.929 198.569L125.294 193.562L123.965 189.474L122.637 193.562L121.002 198.569H111.599L119.264 204.088L116.3 213.183L123.965 207.563L131.63 213.183L128.769 204.088L136.433 198.569H126.929Z" fill="white"/>
<path d="M180.378 198.569L178.743 193.562L177.414 189.474L176.086 193.562L174.451 198.569H164.946L172.611 204.088L169.75 213.183L177.414 207.563L185.079 213.183L182.115 204.088L189.78 198.569H180.378Z" fill="white"/>
<path d="M36.3822 144.813L44.047 139.193L51.7118 144.813L48.7481 135.718L56.4129 130.199H46.9085L46.2954 128.36L44.047 121.206L41.6965 128.36L41.0833 130.199H31.5789L39.2437 135.718L36.3822 144.813Z" fill="white"/>
<path d="M100.358 130.199L99.7445 128.36L97.3939 121.206L95.1456 128.36L94.5324 130.199H85.0281L92.6929 135.718L89.7292 144.813L97.3939 139.193L105.059 144.813L102.197 135.718L109.862 130.199H100.358Z" fill="white"/>
<path d="M153.807 130.199L153.194 128.36L150.843 121.206L148.493 128.36L147.879 130.199H138.477L146.142 135.718L143.178 144.813L150.843 139.193L158.508 144.813L155.544 135.718L163.311 130.199H153.807Z" fill="white"/>
<path d="M1.43075 175.677C1.43075 176.086 1.32855 176.392 1.32855 176.801L2.86151 175.677H1.43075Z" fill="white"/>
<path d="M36.1778 190.291L43.8426 184.773L51.5074 190.291L48.6459 181.298L56.3107 175.677H46.8063L43.8426 166.684L40.8789 175.677H31.4767L39.1415 181.298L36.1778 190.291Z" fill="white"/>
<path d="M100.153 175.677L97.2917 166.684L94.328 175.677H84.8237L92.4885 181.298L89.6269 190.291L97.2917 184.773L104.957 190.291L101.993 181.298L109.658 175.677H100.153Z" fill="white"/>
<path d="M153.602 175.677L150.741 166.684L147.777 175.677H138.273L145.938 181.298L142.974 190.291L150.741 184.773L158.406 190.291L155.442 181.298L163.107 175.677H153.602Z" fill="white"/>
</g>
<defs>
<clipPath id="clip0_7_60">
<rect width="400" height="400" fill="white"/>
</clipPath>
</defs>
</svg>
